<?xml version="1.0" standalone="no"?><!DOCTYPE svg PUBLIC "-//W3C//DTD SVG 1.1//EN" "http://www.w3.org/Graphics/SVG/1.1/DTD/svg11.dtd"><svg t="1740815419419" class="icon" viewBox="0 0 1024 1024" version="1.1" xmlns="http://www.w3.org/2000/svg" p-id="8338" xmlns:xlink="http://www.w3.org/1999/xlink" width="200" height="200"><path d="M488.736157 946.985976c-2.446725 0-4.920056-0.319272-7.366781-0.983397-12.192693-3.305279-20.688181-14.332427-20.775162-26.965142l-2.198062-318.013891-237.262752-9.255805c-10.148128-0.397043-19.295462-6.229888-23.935132-15.263635s-4.051269-19.866467 1.538029-28.345582L523.050684 56.239885c6.904247-10.471492 19.905352-15.114233 31.883151-11.372002 11.973706 3.740184 20.027126 14.954597 19.744693 27.496238l-6.525624 289.304012 230.959186 9.010211c9.914814 0.38681 18.894326 5.966898 23.63121 14.686491 4.736884 8.719592 4.5312 19.289322-0.541329 27.817556L512.920976 933.227624C507.759419 941.906284 498.479055 946.985976 488.736157 946.985976zM273.192056 537.474185l214.254735 8.358365c15.028275 0.586354 26.939559 12.886495 27.042913 27.925003l1.685385 243.889683 233.470379-392.573004-211.348546-8.244778c-15.349593-0.598634-27.382651-13.396101-27.036773-28.753881l4.943592-219.200374L273.192056 537.474185z" p-id="8339"></path></svg>