<svg xmlns="http://www.w3.org/2000/svg" width="200" height="200" class="icon" viewBox="0 0 1024 1024"><path fill="#007AFF" d="M219.43 0h585.14Q1024 0 1024 219.43v585.14Q1024 1024 804.57 1024H219.43Q0 1024 0 804.57V219.43Q0 0 219.43 0Z"/><path fill="#FFF" d="M768 457.14v256a36.57 36.57 0 0 1-36.57 36.57H292.57A36.57 36.57 0 0 1 256 713.14v-256h512zm-140.93 41.93L491.4 634.75l-97.24-64.82a18.29 18.29 0 1 0-20.3 30.43l109.72 73.14a18.29 18.29 0 0 0 23.07-2.29l146.29-146.28a18.29 18.29 0 0 0-25.86-25.86zM329.14 310.86v18.28a54.86 54.86 0 0 0 109.63 3.22l.09-3.22v-18.28h146.28v18.28a54.86 54.86 0 0 0 51.64 54.77l3.22.09a54.86 54.86 0 0 0 54.77-51.64l.09-3.22v-18.28h36.57A36.57 36.57 0 0 1 768 347.43v73.14H256v-73.14a36.57 36.57 0 0 1 36.57-36.57h36.57z"/><path fill="#FFF" d="M384 256q18.29 0 18.29 18.29v54.85q0 18.29-18.29 18.29t-18.29-18.29V274.3Q365.71 256 384 256ZM640 256q18.29 0 18.29 18.29v54.85q0 18.29-18.29 18.29t-18.29-18.29V274.3Q621.71 256 640 256Z"/></svg>