<?xml version="1.0" standalone="no"?><!DOCTYPE svg PUBLIC "-//W3C//DTD SVG 1.1//EN" "http://www.w3.org/Graphics/SVG/1.1/DTD/svg11.dtd"><svg t="1741051571890" class="icon" viewBox="0 0 1024 1024" version="1.1" xmlns="http://www.w3.org/2000/svg" p-id="18523" xmlns:xlink="http://www.w3.org/1999/xlink" width="200" height="200"><path d="M621.056 265.472a137.472 137.472 0 1 1 180.138667 130.730667v333.952a165.845333 165.845333 0 0 1-331.690667 0V294.016a80.64 80.64 0 1 0-161.365333 0v333.781333a137.557333 137.557333 0 0 1-42.666667 268.202667 137.472 137.472 0 0 1-42.666667-268.202667V293.973333a165.973333 165.973333 0 1 1 332.032 0v436.138667a80.512 80.512 0 0 0 161.024 0V396.202667a137.557333 137.557333 0 0 1-94.805333-130.730667zM758.485333 213.333333a52.138667 52.138667 0 1 0 0 104.32 52.138667 52.138667 0 0 0 0-104.32zM265.472 706.389333a52.138667 52.138667 0 1 0 0 104.277334 52.138667 52.138667 0 0 0 0-104.277334z" fill="#666666" p-id="18524"></path></svg>