<?xml version="1.0" standalone="no"?><!DOCTYPE svg PUBLIC "-//W3C//DTD SVG 1.1//EN" "http://www.w3.org/Graphics/SVG/1.1/DTD/svg11.dtd"><svg t="1740815355141" class="icon" viewBox="0 0 1024 1024" version="1.1" xmlns="http://www.w3.org/2000/svg" p-id="5043" xmlns:xlink="http://www.w3.org/1999/xlink" width="200" height="200"><path d="M460.714667 564.48L170.666667 132.352 241.664 85.333333 512 488.106667 782.336 85.333333 853.333333 132.352 563.285333 564.48l68.010667 101.333333A170.666667 170.666667 0 1 1 597.333333 768l-85.333333-127.146667L426.666667 768a170.666667 170.666667 0 1 1-33.962667-102.186667l68.010667-101.333333zM256 853.333333a85.333333 85.333333 0 1 0 0-170.666666 85.333333 85.333333 0 0 0 0 170.666666z m512 0a85.333333 85.333333 0 1 0 0-170.666666 85.333333 85.333333 0 0 0 0 170.666666z" fill="#2E2F30" p-id="5044"></path></svg>