<svg xmlns="http://www.w3.org/2000/svg" width="222.27" height="200" class="icon" viewBox="0 0 1138 1024"><path fill="#4E8CEE" d="M797.6 1023.96a22.27 22.27 0 0 0 23.5-23.5v-356.3a178.56 178.56 0 0 0-167.42-183.1h-176.5a178.15 178.15 0 0 0-167.02 183.1v356.3a22.27 22.27 0 0 0 23.5 23.5z"/><path fill="#A6C5F6" d="M209.12 1023.96a21.86 21.86 0 0 0 23.1-23.5V629.3a18.56 18.56 0 0 0-4.54-18.97 18.97 18.97 0 0 0-16.5-7.01h-71.75A140.63 140.63 0 0 0 .04 742.3v257.33a22.27 22.27 0 0 0 23.1 23.5h185.98zm898.6 0a22.27 22.27 0 0 0 23.5-23.5V742.3a140.21 140.21 0 0 0-139.38-141.04h-71.76c-4.95 0-14.02 2.07-16.5 7.01a47.42 47.42 0 0 0-4.53 18.97V998.4a21.86 21.86 0 0 0 23.1 23.5zM970.8 566.62a164.96 164.96 0 1 0-162.48-164.95 162.9 162.9 0 0 0 162.49 164.95zm-805.8 0a162.48 162.48 0 0 0 162.48-164.95 162.48 162.48 0 1 0-324.96 0A162.48 162.48 0 0 0 165 566.62z"/><path fill="#4E8CEE" d="M565.43 423.11A209.5 209.5 0 0 0 774.5 211.55a209.08 209.08 0 1 0-418.17 0 209.9 209.9 0 0 0 209.09 211.56z"/></svg>