<?xml version="1.0" standalone="no"?><!DOCTYPE svg PUBLIC "-//W3C//DTD SVG 1.1//EN" "http://www.w3.org/Graphics/SVG/1.1/DTD/svg11.dtd"><svg t="1740815145641" class="icon" viewBox="0 0 1025 1024" version="1.1" xmlns="http://www.w3.org/2000/svg" p-id="3705" xmlns:xlink="http://www.w3.org/1999/xlink" width="200.1953125" height="200"><path d="M851.721 408.031l-180.453 0.516c10.078-18.937 59.672-118.828 46.53-225.735-5.499-44.906-33.75-79.593-79.562-97.672-17.907-7.031-105.656-19.515-132.203 5.906-18.438 18.844-17.016 44.328-15.375 73.86 0.797 14.234 1.703 30.375 0.953 47.187-4.47 48.485-10.719 74.329-23.078 95.344-37.39 63.656-100.61 98.39-114.125 100.641H91.814c-17.672 0-32 14.328-32 32v417.267c0 17.672 14.328 32 32 32l269.328-0.172c0.266 0.219 0.531 0.437 0.813 0.672 23.89 19.812 87.36 72.422 192.437 72.422h210.922c58.64 0 105.969-32.156 123.516-83.938 0.203-0.608 0.391-1.218 0.563-1.844 2.172-8 8.234-25.984 15.235-46.812 28.125-83.531 75.188-223.344 75.188-299.359-0.001-78.86-45.485-122.283-128.095-122.283z m-727.906 64.047h101.344v353.265H123.815V472.078zM843.97 809.266c-7.64 22.719-13.25 39.36-16.03 49.313-12.61 35.797-47.938 39.687-62.626 39.687H554.392c-82 0-130.765-40.437-151.593-57.702-10.375-8.595-18.578-15.39-31.75-15.39h-81.89V472.077h65.25c36.484 0 122.624-52.735 169.296-132.219 20.156-34.25 27.047-72.03 31.734-123.344 1-21.516-0.031-40.171-0.875-55.172-0.39-7.109-0.844-15.297-0.827-21.437 18.328-1.11 51.421 1.125 61.047 4.781 24.28 9.579 36.828 24.172 39.484 45.922 11.03 89.703-34.297 178.094-39.5 187.891a30.548 30.548 0 0 0-1.016 2.032c-9.265 20.109-7.625 43.25 4.375 61.952 11.907 18.5 32.328 29.548 54.625 29.548h178.97c53.609 0 64.093 21.375 64.093 58.28 0 65.531-46.735 204.36-71.845 278.954z" fill="#2c2c2c" p-id="3706"></path></svg>