<svg xmlns="http://www.w3.org/2000/svg" width="200" height="200" class="icon" viewBox="0 0 1024 1024"><path fill="#72CBF5" d="M716.8 0H307.2C137.5 0 0 137.5 0 307.2v409.6C0 886.5 137.5 1024 307.2 1024h409.6c169.7 0 307.2-137.5 307.2-307.2V307.2C1024 137.5 886.5 0 716.8 0zM936 681.6C936 822.1 822.1 936 681.6 936H342.4C201.9 936 88 822.1 88 681.6V342.4C88 201.9 201.9 88 342.4 88h339.2C822.1 88 936 201.9 936 342.4v339.2z"/><path fill="#72CBF5" d="M766.5 220.6c-3.7 0-11.1-3.7-14.8-3.7s-11.1 3.7-14.8 3.7l-37 37 55.4 55.4 37-37c7.4-7.4 7.4-18.4 3.7-25.9l-29.5-29.5zM389.6 630.7l51.7-18.5-33.2-33.2zm33.3-88.7 51.6 51.8 251.3-255-48.1-48z"/><path fill="#72CBF5" d="M704.8 30.1H319.2c-159.7 0-289.1 129.4-289.1 289.1v385.5c0 159.7 129.4 289.1 289.1 289.1h385.5c159.7 0 289.1-129.4 289.1-289.1V319.2c.1-159.7-129.3-289.1-289-289.1zm57.9 656c0 51.8-29.6 85-81.3 85H337.9c-51.8 0-92.3-33.2-92.3-85V342.5c0-51.8 40.7-88.7 92.3-88.7h195.8c11.1 0 18.4 7.4 18.4 18.4 0 11.1-7.4 18.4-18.4 18.4H337.9c-25.9 0-55.4 25.9-55.4 51.8v343.7c0 25.9 29.6 48 55.4 48h343.6c25.9 0 44.3-22.2 44.3-48V449.7c0-11.1 7.4-18.4 18.4-18.4 11.1 0 18.4 11.1 18.4 22.2l.1 232.6zm55.5-380.5-62.8 51.8-269.8 284.4h-7.4l-114.5 40.7-25.8-22.2 36.9-121.9V531l280.9-273.4 51.8-62.8c22.2-22.2 59.1-22.2 81.3 0l29.6 29.6c22 22.1 22 59-.2 81.2z"/></svg>