<svg xmlns="http://www.w3.org/2000/svg" width="200" height="200" class="icon" viewBox="0 0 1024 1024"><path fill="#3baeea" d="M900.83 747.55c0-61.3-72.08-136.79-129.4-145.3l77.75-128.28H669.26c32.35-46.54 53.92-107.85 53.92-175.96v-15.9C793 269.64 838.4 249.77 838.4 229.9c0-21.57-50.51-41.44-127.7-53.93-3.41-18.16-55.63-165.17-116.93-165.17-27.24 0-48.82 14.2-63 35.76 0 10.79-10.79 21.57-24.98 21.57-12.49 0-23.27-9.09-24.97-19.87-12.5-21.56-35.77-38.02-63.01-38.02-59.6 0-115.22 135.09-127.71 169.14-66.4 12.5-109.55 30.65-109.55 52.22s44.84 39.73 115.23 52.22v15.9c0 68.1 19.86 129.4 53.92 175.95H169.77l77.2 126.01c-57.34 0-132.83 78.9-132.83 147.58l1.7 206.6c0 34.06 26.68 61.3 61.3 61.3H841.8a61.05 61.05 0 0 0 61.3-61.3l-2.27-208.3zm-439.89 219.1H432l-53.92-397.33 112.96 98.76-30.09 298.57zm123.74 0h-28.94l-30.66-298.57L638.6 567.62l-53.92 399.03zm68.11-627.2v12.48h-14.18s-9.09 77.2-57.33 77.2c-48.82 0-57.9-77.2-57.9-77.2h-32.34c-7.38 63-39.73 77.2-57.33 77.2-43.14 0-55.63-57.33-57.33-77.2h-14.75v-24.97h107.84v12.5h72.09v-12.5H649.4v12.5h3.4zm0 0"/></svg>