<?xml version="1.0" standalone="no"?><!DOCTYPE svg PUBLIC "-//W3C//DTD SVG 1.1//EN" "http://www.w3.org/Graphics/SVG/1.1/DTD/svg11.dtd"><svg t="1741177908432" class="icon" viewBox="0 0 1024 1024" version="1.1" xmlns="http://www.w3.org/2000/svg" p-id="2700" xmlns:xlink="http://www.w3.org/1999/xlink" width="200" height="200"><path d="M931.84 617.813333l-75.093333-75.093333v-34.133333-34.133334l75.093333-75.093333c23.893333-13.653333 30.72-40.96 17.066667-64.853333l-68.266667-122.88c-13.653333-23.893333-40.96-30.72-64.853333-17.066667l-102.4 27.306667c-17.066667-13.653333-37.546667-23.893333-58.026667-34.133334l-27.306667-102.4c0-27.306667-20.48-47.786667-47.786666-47.786666h-139.946667c-27.306667 0-47.786667 20.48-47.786667 47.786666l-27.306666 102.4c-20.48 10.24-40.96 20.48-58.026667 34.133334l-102.4-23.893334c-23.893333-13.653333-51.2-3.413333-64.853333 17.066667L68.266667 337.92c-13.653333 23.893333-6.826667 51.2 17.066666 64.853333L160.426667 477.866667v68.266666l-75.093334 75.093334c-20.48 10.24-27.306667 37.546667-17.066666 61.44l68.266666 122.88c17.066667 20.48 44.373333 27.306667 68.266667 13.653333l102.4-27.306667c17.066667 13.653333 37.546667 23.893333 58.026667 34.133334l27.306666 102.4c0 27.306667 20.48 47.786667 47.786667 47.786666H580.266667c27.306667 0 47.786667-20.48 47.786666-47.786666l27.306667-102.4c20.48-10.24 40.96-20.48 58.026667-34.133334l102.4 27.306667c23.893333 13.653333 51.2 6.826667 64.853333-17.066667l68.266667-122.88c10.24-20.48 3.413333-47.786667-17.066667-61.44z m-423.253333 54.613334c-88.746667 0-163.84-71.68-163.84-163.84 0-88.746667 71.68-163.84 163.84-163.84 88.746667 0 163.84 71.68 163.84 163.84 0 92.16-75.093333 163.84-163.84 163.84z m0 0" p-id="2701" fill="#3889F5"></path></svg>