<?xml version="1.0" standalone="no"?><!DOCTYPE svg PUBLIC "-//W3C//DTD SVG 1.1//EN" "http://www.w3.org/Graphics/SVG/1.1/DTD/svg11.dtd"><svg t="1741051089871" class="icon" viewBox="0 0 1024 1024" version="1.1" xmlns="http://www.w3.org/2000/svg" p-id="6729" xmlns:xlink="http://www.w3.org/1999/xlink" width="200" height="200"><path d="M405.21 63.556c3.73-18.972 24.933-25.139 35.264-10.255l174.328 251.082c5.226 7.53 5.614 18.207 0.929 26.549-47.804 85.09-127.669 140.52-127.669 140.52 124.712-25.44 326.516-159 418.855-223.619 16.45-11.512 35.712 6.904 28.542 27.313C779.136 720.043 470.704 922.47 372.24 977.582c-13.907 7.79-29.455-4.247-28.144-21.725l18.647-248.705-261.96-105.892c-14.746-5.96-17.352-28.463-4.58-39.597l254.734-222.159z m407.998 545.572c5.116-7.13 16.173-7.783 22.59-1.574 57.439 55.622 80.161 161.584 88.046 212.407 1.725 11.102-12.06 18.7-22.265 12.3l-169.53-106.343c-7.36-4.618-8.224-14.1-1.81-19.752 32.087-28.277 66.838-74.545 82.969-97.038z" p-id="6730"></path></svg>