<svg xmlns="http://www.w3.org/2000/svg" width="200" height="200" class="icon" viewBox="0 0 1024 1024"><path fill="#F19851" d="M909.23 875.52a31.57 31.57 0 0 1 0 63.15h-305.5a31.57 31.57 0 0 1 0-63.15zM738.56 571.31l114.77 117.76-128 128a30.72 30.72 0 0 1-21.76 9.38h-81.06a21.76 21.76 0 0 1-24.32-24.32v-76.8a32 32 0 0 1 8.96-21.76l128-130.13zm45.65-45.23a47.36 47.36 0 0 1 67.42 0l50.34 50.35a46.93 46.93 0 0 1 0 66.56l-27.3 28.16-119.9-116.48z"/><path fill="#F19851" d="M802.99 85.33H151.47a64 64 0 0 0-64 64v725.34a64 64 0 0 0 64 64h374.61V756.9a136.53 136.53 0 0 1 42.67-97.71L768 466.77a62.72 62.72 0 0 1 85.33 0l11.1 11.1V149.33a64 64 0 0 0-61.44-64zM329.8 807.68h-87.46a34.13 34.13 0 0 1 0-68.27h85.33a34.13 34.13 0 0 1 0 68.27zm125.87-147.63H242.35a34.13 34.13 0 0 1 0-68.26h213.33a34.56 34.56 0 0 1 34.13 33.7 33.28 33.28 0 0 1-34.13 34.56zm-40.1-325.12h74.66v42.67h-91.3v28.59h91.3v42.66h-91.3v69.98H313.6v-72.96h-92.16V403.2h92.59v-26.88h-92.59v-42.67h74.67L185.17 158.3h100.7l36.26 80.22c17.92 39.68 22.19 50.34 33.71 75.52h2.99c11.94-25.18 17.06-37.98 33.7-75.52l34.14-80.22h98.56z"/></svg>