<svg xmlns="http://www.w3.org/2000/svg" width="200" height="200" class="icon" viewBox="0 0 1024 1024"><path fill="#EAEDF4" d="M273.07 0h477.86C932.98 0 1024 91.02 1024 273.07v477.86c0 182.05-91.02 273.07-273.07 273.07H273.07C91.02 1024 0 932.98 0 750.93V273.07C0 91.02 91.02 0 273.07 0z"/><path fill="#4452F8" d="M352.71 323.64v35.39a53.1 53.1 0 1 0 106.2 0v-35.39h88.5v35.39a53.1 53.1 0 1 0 106.19 0v-35.39h88.48a35.4 35.4 0 0 1 35.4 35.39V713a35.42 35.42 0 0 1-35.4 35.4H281.92a35.4 35.4 0 0 1-35.4-35.4V359.03a35.4 35.4 0 0 1 35.4-35.39h70.8zM548 469.4l-4.81.19-4.78.63a56.89 56.89 0 0 0-26.17 11.85l-.23.19-3.64-2.75-4.2-2.64a56.93 56.93 0 0 0-69.02 9.84 59.92 59.92 0 0 0-.76 82.5l64.97 66.53 2.13 1.86a17.64 17.64 0 0 0 23.19-1.9l68.93-70.54-.34-.34 2.48-3.35 2.66-4.4a59.92 59.92 0 0 0-9.56-70.36 56.93 56.93 0 0 0-40.85-17.31zm52.51-92.65a17.7 17.7 0 0 1-17.71-17.71v-70.8a17.7 17.7 0 1 1 35.4 0v70.8a17.7 17.7 0 0 1-17.69 17.7zm-194.7 0a17.7 17.7 0 0 1-17.69-17.71v-70.8a17.7 17.7 0 0 1 35.39 0v70.8a17.7 17.7 0 0 1-17.7 17.7z"/></svg>