<svg xmlns="http://www.w3.org/2000/svg" width="200" height="200" class="icon" viewBox="0 0 1024 1024"><path fill="#3B8DFF" d="M801.51 174.6h-41.33v-40.78a41.05 41.05 0 0 0-41.43-40.73 41.05 41.05 0 0 0-41.37 40.73v40.77H346.53v-40.77a40.68 40.68 0 0 0-20.71-35.24 41.94 41.94 0 0 0-41.43 0 40.5 40.5 0 0 0-20.66 35.24v40.77h-41.29c-45.66.1-82.62 36.5-82.8 81.32v546.95c0 44.83 37.23 81.5 82.8 81.5h579.07c45.76-.09 82.71-36.58 82.8-81.5V256.1a82.39 82.39 0 0 0-82.84-81.5zM518.24 302.86c69.72.23 126.09 55.39 126.27 123.49-.18 68.1-56.55 123.2-126.18 123.39-69.63-.19-126.1-55.3-126.28-123.35.1-68.1 56.46-123.2 126.19-123.53zm239.75 481.47H265.82v-39.15c0-78.2 164.07-121.3 246.09-121.3s246.08 43.01 246.08 121.3v39.1z"/></svg>