<svg xmlns="http://www.w3.org/2000/svg" width="200" height="200" class="icon" viewBox="0 0 1024 1024"><path fill="#F78748" d="M837.82 1024H186.18C83.32 1024 0 940.68 0 837.82V186.18C0 83.32 83.32 0 186.18 0h651.64C940.68 0 1024 83.32 1024 186.18v651.64c0 102.86-83.32 186.18-186.18 186.18z"/><path fill="#F78748" d="M904.84 397.27v455.9a46.68 46.68 0 0 1-46.54 46.55H205.5a46.68 46.68 0 0 1-46.55-46.54v-652.8a46.68 46.68 0 0 1 46.55-46.55h410.3"/><path fill="#FFF" d="M858.3 922.76H205.5c-38.4 0-69.82-31.41-69.82-69.81V200.38c0-38.4 31.42-69.82 69.82-69.82h410.3c12.8 0 23.27 10.47 23.27 23.27s-10.47 23.28-23.27 23.28H205.5a23.34 23.34 0 0 0-23.27 23.27v652.8a23.34 23.34 0 0 0 23.27 23.27h652.8a23.34 23.34 0 0 0 23.27-23.27V397.27c0-12.8 10.47-23.28 23.27-23.28s23.28 10.48 23.28 23.28v455.9c0 38.4-31.19 69.6-69.82 69.6z"/><path fill="#FFF" d="M759.62 741.93H304.41c-12.8 0-23.28-10.47-23.28-23.27s10.48-23.27 23.28-23.27h455.44c12.8 0 23.28 10.47 23.28 23.27s-10.7 23.27-23.5 23.27zM522 611.6a23.5 23.5 0 0 1-13.72-4.41 23.4 23.4 0 0 1-5.12-32.59l318.37-436.13a23.4 23.4 0 0 1 32.58-5.12 23.4 23.4 0 0 1 5.12 32.58L540.86 602.07A23.92 23.92 0 0 1 522 611.6z"/></svg>